<svg width="52" height="20" viewBox="0 0 52 20" fill="none" xmlns="http://www.w3.org/2000/svg">
<path d="M7.75 7.75L12.25 12.25M12.25 7.75L7.75 12.25M19 10C19 11.1819 18.7672 12.3522 18.3149 13.4442C17.8626 14.5361 17.1997 15.5282 16.364 16.364C15.5282 17.1997 14.5361 17.8626 13.4442 18.3149C12.3522 18.7672 11.1819 19 10 19C8.8181 19 7.64778 18.7672 6.55585 18.3149C5.46392 17.8626 4.47177 17.1997 3.63604 16.364C2.80031 15.5282 2.13738 14.5361 1.68508 13.4442C1.23279 12.3522 1 11.1819 1 10C1 7.61305 1.94821 5.32387 3.63604 3.63604C5.32387 1.94821 7.61305 1 10 1C12.3869 1 14.6761 1.94821 16.364 3.63604C18.0518 5.32387 19 7.61305 19 10Z" stroke="#FF006B" stroke-width="1.5" stroke-linecap="round" stroke-linejoin="round"/>
<path d="M30.7734 5.73438C30.7734 5.89062 30.7656 6.02344 30.75 6.13281C30.7396 6.23698 30.7188 6.32031 30.6875 6.38281C30.6615 6.44531 30.6302 6.49219 30.5938 6.52344C30.5573 6.55469 30.5156 6.57031 30.4688 6.57031H27.1641V9.28906H30.2656C30.3125 9.28906 30.3542 9.30208 30.3906 9.32812C30.4271 9.35417 30.4583 9.39844 30.4844 9.46094C30.5156 9.52344 30.5365 9.60677 30.5469 9.71094C30.5625 9.8151 30.5703 9.94531 30.5703 10.1016C30.5703 10.2578 30.5625 10.388 30.5469 10.4922C30.5365 10.5964 30.5156 10.6823 30.4844 10.75C30.4583 10.8177 30.4271 10.8672 30.3906 10.8984C30.3542 10.9245 30.3125 10.9375 30.2656 10.9375H27.1641V14.7031C27.1641 14.7604 27.1484 14.8099 27.1172 14.8516C27.0859 14.8932 27.0286 14.9297 26.9453 14.9609C26.8672 14.987 26.763 15.0078 26.6328 15.0234C26.5026 15.0391 26.3359 15.0469 26.1328 15.0469C25.9349 15.0469 25.7682 15.0391 25.6328 15.0234C25.5026 15.0078 25.3984 14.987 25.3203 14.9609C25.2422 14.9297 25.1849 14.8932 25.1484 14.8516C25.1172 14.8099 25.1016 14.7604 25.1016 14.7031V5.53906C25.1016 5.3099 25.1589 5.14583 25.2734 5.04688C25.3932 4.94271 25.5391 4.89062 25.7109 4.89062H30.4688C30.5156 4.89062 30.5573 4.90625 30.5938 4.9375C30.6302 4.96354 30.6615 5.01042 30.6875 5.07812C30.7188 5.14062 30.7396 5.22656 30.75 5.33594C30.7656 5.44531 30.7734 5.57812 30.7734 5.73438Z" fill="#FF006B"/>
<path d="M39.8203 14.2344C39.8828 14.4219 39.9219 14.5703 39.9375 14.6797C39.9531 14.7891 39.9323 14.8724 39.875 14.9297C39.8177 14.9818 39.7161 15.013 39.5703 15.0234C39.4245 15.0391 39.224 15.0469 38.9688 15.0469C38.7031 15.0469 38.4948 15.0417 38.3438 15.0312C38.1979 15.026 38.0859 15.013 38.0078 14.9922C37.9297 14.9661 37.875 14.9323 37.8438 14.8906C37.8125 14.849 37.7865 14.7943 37.7656 14.7266L37.0859 12.6953H33.2891L32.6484 14.6719C32.6276 14.7448 32.599 14.8073 32.5625 14.8594C32.5312 14.9062 32.4766 14.9453 32.3984 14.9766C32.3255 15.0026 32.2188 15.0208 32.0781 15.0312C31.9427 15.0417 31.763 15.0469 31.5391 15.0469C31.2995 15.0469 31.112 15.0391 30.9766 15.0234C30.8411 15.0078 30.7474 14.9714 30.6953 14.9141C30.6432 14.8516 30.625 14.7656 30.6406 14.6562C30.6562 14.5469 30.6953 14.401 30.7578 14.2188L33.875 5.25C33.9062 5.16146 33.9427 5.09115 33.9844 5.03906C34.026 4.98177 34.0911 4.9401 34.1797 4.91406C34.2734 4.88281 34.401 4.86458 34.5625 4.85938C34.724 4.84896 34.9375 4.84375 35.2031 4.84375C35.5104 4.84375 35.7552 4.84896 35.9375 4.85938C36.1198 4.86458 36.2604 4.88281 36.3594 4.91406C36.4635 4.9401 36.5365 4.98177 36.5781 5.03906C36.625 5.09635 36.6641 5.17448 36.6953 5.27344L39.8203 14.2344ZM35.1797 6.82031H35.1719L33.7422 11.1172H36.6094L35.1797 6.82031Z" fill="#FF006B"/>
<path d="M43.3047 14.7188C43.3047 14.7708 43.2865 14.8177 43.25 14.8594C43.2188 14.901 43.1641 14.9349 43.0859 14.9609C43.0078 14.987 42.9036 15.0078 42.7734 15.0234C42.6432 15.0391 42.4766 15.0469 42.2734 15.0469C42.0755 15.0469 41.9089 15.0391 41.7734 15.0234C41.6432 15.0078 41.5391 14.987 41.4609 14.9609C41.3828 14.9349 41.3255 14.901 41.2891 14.8594C41.2578 14.8177 41.2422 14.7708 41.2422 14.7188V5.17188C41.2422 5.11979 41.2578 5.07292 41.2891 5.03125C41.3255 4.98958 41.3828 4.95573 41.4609 4.92969C41.5443 4.90365 41.651 4.88281 41.7812 4.86719C41.9115 4.85156 42.0755 4.84375 42.2734 4.84375C42.4766 4.84375 42.6432 4.85156 42.7734 4.86719C42.9036 4.88281 43.0078 4.90365 43.0859 4.92969C43.1641 4.95573 43.2188 4.98958 43.25 5.03125C43.2865 5.07292 43.3047 5.11979 43.3047 5.17188V14.7188Z" fill="#FF006B"/>
<path d="M51.0625 14.1406C51.0625 14.2969 51.0547 14.4297 51.0391 14.5391C51.0286 14.6432 51.0104 14.7318 50.9844 14.8047C50.9583 14.8724 50.9245 14.9219 50.8828 14.9531C50.8464 14.9844 50.8021 15 50.75 15H46.1172C45.9453 15 45.7995 14.9505 45.6797 14.8516C45.5651 14.7474 45.5078 14.5807 45.5078 14.3516V5.17188C45.5078 5.11979 45.5234 5.07292 45.5547 5.03125C45.5911 4.98958 45.6484 4.95573 45.7266 4.92969C45.8047 4.90365 45.9089 4.88281 46.0391 4.86719C46.1745 4.85156 46.3411 4.84375 46.5391 4.84375C46.7422 4.84375 46.9089 4.85156 47.0391 4.86719C47.1693 4.88281 47.2734 4.90365 47.3516 4.92969C47.4297 4.95573 47.4844 4.98958 47.5156 5.03125C47.5521 5.07292 47.5703 5.11979 47.5703 5.17188V13.3047H50.75C50.8021 13.3047 50.8464 13.3203 50.8828 13.3516C50.9245 13.3776 50.9583 13.4245 50.9844 13.4922C51.0104 13.5547 51.0286 13.6406 51.0391 13.75C51.0547 13.8542 51.0625 13.9844 51.0625 14.1406Z" fill="#FF006B"/>
</svg>
