<svg width="46" height="20" viewBox="0 0 46 20" fill="none" xmlns="http://www.w3.org/2000/svg">
<path d="M7 10.75L9.25 13L13 7.75M19 10C19 11.1819 18.7672 12.3522 18.3149 13.4442C17.8626 14.5361 17.1997 15.5282 16.364 16.364C15.5282 17.1997 14.5361 17.8626 13.4442 18.3149C12.3522 18.7672 11.1819 19 10 19C8.8181 19 7.64778 18.7672 6.55585 18.3149C5.46392 17.8626 4.47177 17.1997 3.63604 16.364C2.80031 15.5282 2.13738 14.5361 1.68508 13.4442C1.23279 12.3522 1 11.1819 1 10C1 7.61305 1.94821 5.32387 3.63604 3.63604C5.32387 1.94821 7.61305 1 10 1C12.3869 1 14.6761 1.94821 16.364 3.63604C18.0518 5.32387 19 7.61305 19 10Z" stroke="#8ED001" stroke-width="1.5" stroke-linecap="round" stroke-linejoin="round"/>
<path d="M36.1953 9.82812C36.1953 10.6667 36.0911 11.4167 35.8828 12.0781C35.6745 12.7396 35.3646 13.3021 34.9531 13.7656C34.5417 14.224 34.0312 14.5755 33.4219 14.8203C32.8177 15.0599 32.1172 15.1797 31.3203 15.1797C30.5339 15.1797 29.8464 15.0781 29.2578 14.875C28.6745 14.6667 28.1875 14.3516 27.7969 13.9297C27.4062 13.5078 27.112 12.9714 26.9141 12.3203C26.7214 11.6693 26.625 10.8984 26.625 10.0078C26.625 9.1901 26.7292 8.45573 26.9375 7.80469C27.1458 7.14844 27.4557 6.59115 27.8672 6.13281C28.2786 5.67448 28.7865 5.32292 29.3906 5.07812C30 4.83333 30.7057 4.71094 31.5078 4.71094C32.2734 4.71094 32.9479 4.8125 33.5312 5.01562C34.1198 5.21875 34.6094 5.53125 35 5.95312C35.3958 6.375 35.6927 6.90885 35.8906 7.55469C36.0938 8.19531 36.1953 8.95312 36.1953 9.82812ZM34.0391 9.9375C34.0391 9.40625 33.9974 8.92448 33.9141 8.49219C33.8307 8.05469 33.6875 7.68229 33.4844 7.375C33.2865 7.0625 33.0208 6.82292 32.6875 6.65625C32.3542 6.48438 31.9375 6.39844 31.4375 6.39844C30.9323 6.39844 30.5104 6.49479 30.1719 6.6875C29.8333 6.875 29.5599 7.1276 29.3516 7.44531C29.1432 7.76302 28.9948 8.13542 28.9062 8.5625C28.8229 8.98438 28.7812 9.43229 28.7812 9.90625C28.7812 10.4583 28.8229 10.9557 28.9062 11.3984C28.9896 11.8359 29.1302 12.2109 29.3281 12.5234C29.526 12.8359 29.7917 13.0755 30.125 13.2422C30.4583 13.4036 30.8776 13.4844 31.3828 13.4844C31.888 13.4844 32.3099 13.3906 32.6484 13.2031C32.987 13.0156 33.2604 12.7604 33.4688 12.4375C33.6771 12.1146 33.8229 11.7396 33.9062 11.3125C33.9948 10.8802 34.0391 10.4219 34.0391 9.9375Z" fill="#8ED001"/>
<path d="M45.3125 14.6953C45.3125 14.7526 45.2969 14.8047 45.2656 14.8516C45.2396 14.8932 45.1849 14.9297 45.1016 14.9609C45.0234 14.987 44.9141 15.0078 44.7734 15.0234C44.6328 15.0391 44.4557 15.0469 44.2422 15.0469C43.9036 15.0469 43.6589 15.0339 43.5078 15.0078C43.362 14.9818 43.2552 14.9427 43.1875 14.8906C43.125 14.8385 43.0755 14.776 43.0391 14.7031L39.9844 9.90625V14.7031C39.9844 14.7604 39.9688 14.8099 39.9375 14.8516C39.9062 14.8932 39.8516 14.9297 39.7734 14.9609C39.6953 14.987 39.5911 15.0078 39.4609 15.0234C39.3307 15.0391 39.1641 15.0469 38.9609 15.0469C38.763 15.0469 38.5964 15.0391 38.4609 15.0234C38.3307 15.0078 38.2266 14.987 38.1484 14.9609C38.0703 14.9297 38.013 14.8932 37.9766 14.8516C37.9453 14.8099 37.9297 14.7604 37.9297 14.7031V5.17969C37.9297 5.1224 37.9453 5.07292 37.9766 5.03125C38.013 4.98958 38.0703 4.95573 38.1484 4.92969C38.2266 4.90365 38.3307 4.88281 38.4609 4.86719C38.5964 4.85156 38.763 4.84375 38.9609 4.84375C39.1641 4.84375 39.3307 4.85156 39.4609 4.86719C39.5911 4.88281 39.6953 4.90365 39.7734 4.92969C39.8516 4.95573 39.9062 4.98958 39.9375 5.03125C39.9688 5.07292 39.9844 5.1224 39.9844 5.17969V9.48438L42.9453 5.1875C42.9818 5.11979 43.026 5.0651 43.0781 5.02344C43.1302 4.97656 43.1979 4.9401 43.2812 4.91406C43.3646 4.88802 43.4714 4.86979 43.6016 4.85938C43.7318 4.84896 43.8984 4.84375 44.1016 4.84375C44.3099 4.84375 44.4818 4.85156 44.6172 4.86719C44.7526 4.88281 44.8594 4.90625 44.9375 4.9375C45.0208 4.96354 45.0781 4.9974 45.1094 5.03906C45.1406 5.08073 45.1562 5.1276 45.1562 5.17969C45.1562 5.26823 45.1328 5.35938 45.0859 5.45312C45.0391 5.54688 44.9505 5.69531 44.8203 5.89844L42.0469 9.53125L45.0703 14.1016C45.1849 14.3151 45.2526 14.4583 45.2734 14.5312C45.2995 14.599 45.3125 14.6536 45.3125 14.6953Z" fill="#8ED001"/>
</svg>
